<?xml version="1.0" standalone="no"?>
<!DOCTYPE svg PUBLIC "-//W3C//DTD SVG 20010904//EN"
 "http://www.w3.org/TR/2001/REC-SVG-20010904/DTD/svg10.dtd">
<svg version="1.0" xmlns="http://www.w3.org/2000/svg"
 width="300.000000pt" height="300.000000pt" viewBox="0 0 300.000000 300.000000"
 preserveAspectRatio="xMidYMid meet">
<metadata>
Created by potrace 1.11, written by Peter Selinger 2001-2013
</metadata>
<g transform="translate(0.000000,300.000000) scale(0.100000,-0.100000)"
fill="#000000" stroke="none">
<path d="M0 1500 l0 -1500 1500 0 1500 0 0 1500 0 1500 -1500 0 -1500 0 0
-1500z m610 310 l281 -310 276 310 c152 170 283 310 290 310 11 0 13 -106 13
-580 l0 -580 -115 0 -115 0 0 295 c0 162 -3 295 -7 294 -5 0 -61 -62 -126
-137 -65 -75 -141 -162 -168 -192 l-50 -55 -57 60 c-31 33 -108 119 -171 190
-62 72 -116 131 -120 133 -4 1 -5 -130 -3 -293 l5 -295 -117 0 -116 0 0 580
c0 355 4 580 9 580 6 0 136 -140 291 -310z m1502 -14 l353 -325 3 320 2 319
115 0 115 0 0 -580 c0 -457 -3 -580 -12 -580 -12 0 -288 249 -590 531 -69 66
-129 119 -132 119 -3 0 -6 -144 -6 -320 l0 -320 -110 0 -110 0 0 580 c0 375 3
580 10 580 5 0 168 -146 362 -324z"/>
</g>
</svg>
