<?xml version="1.0" standalone="no"?>
<!DOCTYPE svg PUBLIC "-//W3C//DTD SVG 20010904//EN"
 "http://www.w3.org/TR/2001/REC-SVG-20010904/DTD/svg10.dtd">
<svg version="1.0" xmlns="http://www.w3.org/2000/svg"
 width="300.000000pt" height="300.000000pt" viewBox="0 0 300.000000 300.000000"
 preserveAspectRatio="xMidYMid meet">
<metadata>
Created by potrace 1.11, written by Peter Selinger 2001-2013
</metadata>
<g transform="translate(0.000000,300.000000) scale(0.100000,-0.100000)"
fill="#000000" stroke="none">
<path d="M0 1500 l0 -1500 1500 0 1500 0 0 1500 0 1500 -1500 0 -1500 0 0
-1500z m606 315 c149 -165 276 -301 282 -303 5 -1 133 134 282 302 150 169
279 306 286 306 12 0 14 -95 14 -580 l0 -580 -115 0 -115 0 -2 297 -3 296
-170 -192 c-93 -105 -174 -190 -181 -189 -6 2 -85 86 -174 188 -90 102 -166
186 -169 188 -3 1 -5 -131 -3 -293 l3 -295 -115 0 -116 0 0 581 c0 460 3 580
13 577 6 -3 134 -139 283 -303z m1507 -19 l352 -324 3 319 2 319 115 0 115 0
0 -580 c0 -471 -2 -580 -13 -580 -12 0 -502 443 -647 586 -36 35 -69 64 -73
64 -4 0 -7 -144 -7 -320 l0 -320 -110 0 -110 0 0 580 c0 398 3 580 10 580 6 0
169 -146 363 -324z"/>
</g>
</svg>
