<?xml version="1.0" standalone="no"?>
<!DOCTYPE svg PUBLIC "-//W3C//DTD SVG 20010904//EN"
 "http://www.w3.org/TR/2001/REC-SVG-20010904/DTD/svg10.dtd">
<svg version="1.0" xmlns="http://www.w3.org/2000/svg"
 width="660.000000pt" height="660.000000pt" viewBox="0 0 660.000000 660.000000"
 preserveAspectRatio="xMidYMid meet">
<metadata>
Created by potrace 1.11, written by Peter Selinger 2001-2013
</metadata>
<g transform="translate(0.000000,660.000000) scale(0.100000,-0.100000)"
fill="#000000" stroke="none">
<path d="M0 3295 l0 -1925 3300 0 3300 0 0 1925 0 1925 -3300 0 -3300 0 0
-1925z m1575 500 c286 -316 525 -573 531 -572 6 1 241 260 524 575 282 314
519 572 526 572 12 0 14 -178 14 -1075 l0 -1075 -205 0 -205 0 0 555 c0 305
-4 555 -8 555 -5 0 -33 -28 -62 -62 -29 -35 -170 -195 -313 -355 -187 -210
-267 -293 -281 -292 -14 0 -57 41 -120 112 -237 268 -474 534 -506 570 l-35
38 4 -560 3 -561 -211 0 -211 0 0 1075 c0 1017 1 1075 18 1074 9 0 242 -248
537 -574z m2712 59 c301 -276 598 -547 658 -603 61 -55 113 -101 118 -101 4 0
7 270 7 600 l0 600 205 0 205 0 0 -1075 c0 -1031 -1 -1075 -18 -1075 -14 0
-530 465 -1293 1168 l-69 64 0 -606 0 -606 -205 0 -205 0 0 1071 0 1070 24 -3
c16 -2 216 -178 573 -504z"/>
</g>
</svg>
